<svg height="480pt" viewBox="-63 0 479 480" width="480pt" xmlns="http://www.w3.org/2000/svg"><path d="m77.765625 1.976562c-3.015625-2.636718-7.515625-2.636718-10.53125 0l-64 56c-1.738281 1.519532-2.734375 3.714844-2.734375 6.023438v368c0 4.417969 3.582031 8 8 8h128c4.417969 0 8-3.582031 8-8v-368c0-2.308594-.996094-4.503906-2.734375-6.023438zm50.734375 422.023438h-112v-356.367188l56-49 56 49zm0 0"/><path d="m48.5 104c0 4.417969 3.582031 8 8 8h32c4.417969 0 8-3.582031 8-8s-3.582031-8-8-8h-32c-4.417969 0-8 3.582031-8 8zm0 0"/><path d="m88.5 144h-32c-4.417969 0-8 3.582031-8 8s3.582031 8 8 8h32c4.417969 0 8-3.582031 8-8s-3.582031-8-8-8zm0 0"/><path d="m88.5 200h-32c-4.417969 0-8 3.582031-8 8s3.582031 8 8 8h32c4.417969 0 8-3.582031 8-8s-3.582031-8-8-8zm0 0"/><path d="m88.5 248h-32c-4.417969 0-8 3.582031-8 8s3.582031 8 8 8h32c4.417969 0 8-3.582031 8-8s-3.582031-8-8-8zm0 0"/><path d="m88.5 296h-32c-4.417969 0-8 3.582031-8 8s3.582031 8 8 8h32c4.417969 0 8-3.582031 8-8s-3.582031-8-8-8zm0 0"/><path d="m344.5 360c4.417969 0 8-3.582031 8-8v-32c0-4.417969-3.582031-8-8-8h-8v-304c0-4.417969-3.582031-8-8-8h-128c-4.417969 0-8 3.582031-8 8v304h-8c-4.417969 0-8 3.582031-8 8v32c0 4.417969 3.582031 8 8 8h8v33.472656c-9.554688 3.378906-15.957031 12.394532-16 22.527344v40c0 13.253906 10.746094 24 24 24h128c13.253906 0 24-10.746094 24-24v-40c-.042969-10.132812-6.445312-19.148438-16-22.527344v-33.472656zm-136-344h112v296h-112zm-16 312h144v16h-144zm144 128c0 4.417969-3.582031 8-8 8h-128c-4.417969 0-8-3.582031-8-8v-40c0-4.417969 3.582031-8 8-8h48v32c0 8.835938 7.164062 16 16 16s16-7.164062 16-16v-32h48c4.417969 0 8 3.582031 8 8zm-16-64h-112v-32h112zm0 0"/><path d="m280.5 264h-32c-4.417969 0-8 3.582031-8 8s3.582031 8 8 8h32c4.417969 0 8-3.582031 8-8s-3.582031-8-8-8zm0 0"/><path d="m280.5 216h-32c-4.417969 0-8 3.582031-8 8s3.582031 8 8 8h32c4.417969 0 8-3.582031 8-8s-3.582031-8-8-8zm0 0"/><path d="m280.5 168h-32c-4.417969 0-8 3.582031-8 8s3.582031 8 8 8h32c4.417969 0 8-3.582031 8-8s-3.582031-8-8-8zm0 0"/><path d="m280.5 120h-32c-4.417969 0-8 3.582031-8 8s3.582031 8 8 8h32c4.417969 0 8-3.582031 8-8s-3.582031-8-8-8zm0 0"/></svg>